<?xml version="1.0" standalone="no"?>
<!DOCTYPE svg PUBLIC "-//W3C//DTD SVG 20010904//EN"
 "http://www.w3.org/TR/2001/REC-SVG-20010904/DTD/svg10.dtd">
<svg version="1.0" xmlns="http://www.w3.org/2000/svg"
 width="350.000000pt" height="350.000000pt" viewBox="0 0 350.000000 350.000000"
 preserveAspectRatio="xMidYMid meet">
<metadata>
Created by potrace 1.14, written by Peter Selinger 2001-2017
</metadata>
<g transform="translate(0.000000,350.000000) scale(0.100000,-0.100000)"
fill="#000000" stroke="none">
<path d="M1721 3423 c-16 -13 -23 -30 -24 -56 -1 -36 -2 -37 -37 -35 -20 1
-42 -2 -48 -6 -7 -4 -22 0 -34 8 -30 22 -63 20 -115 -5 -48 -23 -74 -55 -93
-113 -10 -31 -10 -57 1 -132 9 -71 10 -99 1 -119 -6 -14 -8 -25 -3 -25 14 0
41 36 41 56 0 24 16 49 23 38 11 -18 26 -122 20 -143 -7 -26 1 -26 42 -1 53
33 64 95 29 162 -17 33 -11 51 9 25 14 -20 48 -29 67 -17 12 7 11 12 -4 29
-40 45 14 138 65 111 14 -8 18 -17 14 -28 -26 -64 -27 -72 -10 -98 9 -14 14
-28 11 -31 -3 -3 -1 -14 5 -24 7 -15 6 -19 -5 -19 -28 0 -61 -21 -73 -47 -11
-23 -10 -30 5 -47 16 -18 16 -19 -1 -13 -14 5 -32 -7 -72 -47 -62 -62 -89 -73
-109 -45 -12 18 -14 18 -20 4 -3 -9 -6 -30 -6 -47 0 -24 6 -32 30 -41 36 -13
37 -20 9 -46 -21 -19 -44 -18 -83 5 -21 13 -12 39 14 39 21 0 21 41 0 67 -14
17 -21 19 -46 11 -16 -5 -35 -22 -42 -37 -9 -18 -17 -24 -25 -18 -28 21 -55
20 -68 -4 -28 -53 -59 -13 -33 42 13 28 19 32 30 23 22 -18 28 -3 15 40 -17
59 -84 69 -97 15 -7 -27 -22 -32 -31 -8 -8 22 28 66 60 75 33 9 56 -9 90 -71
14 -25 32 -46 40 -48 23 -5 50 55 51 108 0 59 -7 76 -43 94 -119 62 -265 -29
-272 -169 -3 -60 2 -76 36 -113 29 -33 32 -40 20 -53 -35 -34 -85 -94 -86
-101 -7 -46 -2 -54 46 -78 56 -28 71 -63 39 -87 -31 -23 -47 -16 -41 17 12 58
-64 59 -86 0 -14 -37 -24 -39 -24 -4 0 32 -36 70 -74 78 -64 13 -139 -59 -139
-134 0 -23 10 -42 35 -67 34 -34 45 -50 25 -38 -14 9 -81 -22 -114 -53 -15
-15 -48 -57 -73 -95 -37 -55 -46 -77 -48 -120 -2 -28 -7 -63 -13 -77 -8 -21
-10 -81 -3 -126 0 -6 27 -46 60 -88 63 -81 79 -119 60 -142 -6 -8 -13 -24 -14
-37 -4 -37 -5 -38 -15 -32 -5 3 -10 15 -10 26 0 39 -30 77 -83 106 l-54 30 1
-65 c1 -56 5 -68 29 -91 35 -36 34 -41 -6 -41 -65 0 -82 -40 -41 -94 11 -16
17 -17 26 -8 22 22 29 12 13 -19 -13 -24 -19 -28 -30 -19 -22 19 -64 110 -71
158 -4 23 -10 42 -15 42 -5 0 -9 -4 -9 -10 0 -19 -2 -25 -11 -36 -14 -17 -3
-184 16 -239 43 -123 153 -302 232 -375 104 -96 213 -188 286 -240 72 -51 90
-70 68 -70 -5 0 -21 -16 -36 -35 l-27 -36 25 -42 c35 -60 79 -102 155 -151
169 -109 371 -187 547 -212 159 -22 407 5 570 63 243 87 371 166 454 282 l31
45 -31 32 c-33 34 -34 59 -2 71 42 15 216 154 303 242 149 150 216 267 256
446 9 43 11 195 2 201 -4 3 -5 12 -2 22 3 10 1 9 -5 -3 -6 -11 -15 -39 -21
-63 -6 -23 -25 -58 -42 -77 l-31 -36 -13 27 c-21 39 -17 48 11 30 25 -17 26
-16 39 15 22 53 -3 101 -43 80 -32 -18 -48 -12 -18 7 31 19 40 39 39 94 -1 22
3 51 8 64 10 24 -2 34 -15 13 -4 -5 -31 -22 -61 -36 -48 -23 -73 -51 -66 -77
4 -14 -9 -46 -19 -46 -5 0 -9 8 -9 18 0 9 -9 28 -19 42 -22 28 -19 36 40 115
21 28 47 72 59 99 21 49 22 94 6 277 -4 49 -84 168 -133 199 -25 16 -50 31
-56 33 -6 2 7 19 28 39 36 33 39 40 39 86 -2 115 -117 166 -191 85 -28 -29
-29 -63 -4 -91 21 -25 41 -29 41 -8 0 16 27 29 41 20 31 -19 -15 -88 -68 -103
-28 -8 -35 -6 -47 11 -9 13 -12 29 -7 46 10 35 -20 108 -48 117 -12 3 -30 3
-42 0 -16 -5 -18 -9 -8 -21 18 -22 -4 -42 -26 -24 -23 19 -19 30 29 76 42 40
44 45 36 76 -20 68 -52 118 -77 118 -28 0 -28 2 0 48 51 81 61 165 27 231 -30
60 -63 81 -127 81 -135 0 -192 -85 -128 -194 30 -51 39 -49 49 10 6 34 48 74
77 74 17 0 79 -26 79 -33 0 -1 4 -18 10 -37 9 -32 8 -33 -6 -15 -34 47 -45 55
-73 55 -35 0 -61 -31 -61 -73 0 -25 2 -27 21 -17 31 17 68 -10 62 -44 -7 -35
-31 -54 -39 -31 -11 27 -54 39 -74 20 -17 -15 -20 -14 -44 10 -15 15 -32 25
-39 22 -46 -19 -46 -19 -42 0 6 35 -10 48 -36 29 -44 -30 -76 -18 -134 54 -12
14 -30 30 -40 36 -11 6 -20 18 -20 26 0 18 -55 78 -71 78 -14 0 -11 47 4 77
15 27 16 80 2 88 -29 18 11 38 48 24 26 -10 28 -35 8 -84 -13 -30 -13 -35 -1
-35 32 0 65 21 81 52 25 48 28 19 4 -41 -24 -62 -25 -92 -5 -131 20 -39 65
-65 65 -37 0 7 9 29 20 50 11 20 20 48 20 61 0 31 10 57 20 51 4 -2 4 -22 0
-44 -7 -39 2 -71 20 -71 6 0 10 15 10 34 0 19 5 47 10 62 17 43 15 125 -5 172
-22 53 -56 78 -120 87 -28 4 -59 14 -70 21 -30 21 -59 17 -100 -16 -47 -37
-53 -37 -48 -2 10 72 9 86 -10 105 -12 12 -25 16 -35 11 -20 -8 -40 -8 -68 1
-13 4 -28 0 -43 -12z m476 -718 c-4 -8 -2 -17 3 -20 4 -3 10 1 13 7 3 10 8 10
16 2 33 -31 -35 -76 -75 -49 -33 21 -32 55 0 55 14 0 28 5 31 10 9 15 18 12
12 -5z m-924 -67 c-3 -6 -12 -3 -20 5 -9 9 -12 20 -8 28 6 9 11 8 21 -6 7 -10
11 -22 7 -27z m270 -16 c0 -36 -33 -102 -58 -116 -57 -32 -57 -63 -1 -77 35
-8 47 -17 57 -40 6 -16 9 -32 6 -35 -5 -6 -46 19 -87 53 -8 7 -32 26 -53 42
-21 16 -38 32 -38 36 0 3 27 25 59 49 53 40 92 93 92 127 0 10 3 10 12 1 6 -6
11 -24 11 -40z m544 -60 c23 -40 76 -82 107 -82 25 0 19 -18 -13 -34 -15 -8
-55 -32 -87 -54 -68 -44 -94 -56 -94 -41 0 21 58 68 93 74 53 10 50 53 -5 74
-29 11 -57 64 -62 116 -5 45 5 52 23 18 9 -17 26 -49 38 -71z m253 89 c0 -5
-13 -19 -30 -31 -33 -24 -35 -22 -18 15 11 23 48 36 48 16z m-1164 -72 c10
-17 -17 -29 -40 -17 -20 11 -20 11 -1 19 28 11 33 10 41 -2z m1286 -128 c3
-23 -25 -52 -37 -39 -4 4 -10 22 -15 42 -6 28 -5 36 9 39 21 5 40 -13 43 -42z
m-1302 24 c10 -12 10 -21 2 -41 -10 -21 -15 -23 -31 -14 -30 16 -35 30 -15 51
21 23 28 24 44 4z m-308 -138 c-5 -22 -5 -22 17 -3 21 19 22 19 36 0 22 -29
18 -41 -17 -47 -39 -5 -69 7 -87 35 -10 16 -9 24 4 45 16 23 18 24 35 8 11
-10 16 -24 12 -38z m93 13 c21 -23 12 -39 -12 -24 -17 10 -27 44 -14 44 4 0
16 -9 26 -20z m1045 -9 c0 -12 -27 -17 -67 -13 -51 6 -39 22 17 22 28 0 50 -4
50 -9z m-171 -60 c-38 -48 -51 -50 -73 -16 -9 14 -12 25 -7 25 5 0 13 -4 16
-10 10 -16 21 -12 55 20 44 41 49 30 9 -19z m-848 -252 c32 -22 59 -45 59 -51
0 -7 -12 -21 -26 -33 l-25 -20 31 -24 c41 -30 86 -20 115 26 11 18 23 32 26
33 11 0 0 -142 -16 -203 -23 -89 -99 -226 -183 -327 -41 -50 -76 -89 -79 -86
-3 3 -1 18 4 33 5 15 8 43 8 61 -1 24 2 31 13 27 10 -4 13 3 9 28 -5 40 -20
69 -59 120 -39 48 -26 47 28 -3 24 -22 50 -41 59 -41 8 -1 21 -2 28 -3 50 -7
102 63 95 129 -7 55 4 75 31 58 22 -14 30 -8 25 20 -5 35 -14 47 -40 57 -38
15 -61 4 -89 -41 -25 -38 -26 -39 -58 -26 -45 19 -43 38 8 70 54 34 57 47 12
47 -37 0 -63 23 -91 78 -12 24 -14 37 -7 46 6 7 7 16 2 22 -16 16 -16 50 -2
78 l15 27 24 -31 c13 -17 50 -49 83 -71z m1738 65 c8 -28 7 -45 -5 -72 -19
-45 -7 -56 36 -34 23 11 39 28 45 49 15 44 25 52 25 18 0 -21 -18 -46 -82
-108 -51 -51 -91 -83 -107 -85 -14 -2 -27 -5 -28 -6 -7 -7 40 -56 53 -56 26 0
14 -29 -23 -54 -42 -29 -48 -27 -56 13 -4 17 -15 39 -26 50 -16 16 -26 18 -52
11 -55 -16 -70 -66 -21 -72 27 -3 27 -3 24 -71 -3 -60 -1 -72 19 -93 24 -26
75 -32 110 -14 21 12 26 1 8 -17 -7 -7 -9 -22 -4 -40 4 -15 8 -58 9 -95 l1
-68 -43 43 c-121 118 -191 279 -209 483 -6 70 8 90 31 46 23 -44 41 -55 79
-48 19 3 42 13 53 20 18 14 18 16 -14 47 l-32 32 67 48 c37 27 78 63 91 79 30
39 39 38 51 -6z m-1937 -2 c2 -16 2 -34 0 -41 -6 -18 -31 19 -32 47 0 32 27
27 32 -6z m-107 -242 c14 -15 15 -20 4 -20 -8 0 -20 9 -27 20 -7 11 -8 20 -4
20 5 0 17 -9 27 -20z m2275 10 c0 -6 -12 -23 -27 -38 -34 -34 -46 -12 -12 24
24 25 39 31 39 14z m-2245 -264 c7 -26 22 -60 34 -74 11 -15 30 -43 40 -62 17
-31 18 -39 6 -67 -7 -17 -25 -39 -38 -48 -23 -15 -28 -15 -55 -1 -34 18 -45
48 -30 82 9 18 15 21 29 14 27 -15 29 -13 29 32 0 25 -7 49 -17 61 -10 10 -19
31 -19 46 -1 14 -5 37 -9 50 -6 17 -5 23 5 19 7 -2 19 -26 25 -52z m2205 35
c0 -5 -7 -25 -16 -46 -11 -26 -12 -41 -5 -48 7 -7 2 -16 -18 -28 -28 -17 -44
-59 -34 -86 6 -16 33 -18 33 -2 0 21 33 4 37 -19 6 -41 -13 -62 -57 -62 -31 0
-43 5 -55 24 -28 43 -22 80 25 142 24 31 47 74 53 95 5 22 16 39 23 39 8 0 14
-4 14 -9z m-2295 -344 c36 -33 76 -49 110 -44 29 4 38 0 60 -27 14 -17 72 -87
128 -156 56 -68 118 -142 138 -164 l36 -40 50 32 c27 18 52 32 54 32 2 0 34
-28 70 -62 35 -35 83 -72 104 -83 107 -54 253 -139 276 -161 14 -13 33 -48 43
-76 25 -71 32 -78 75 -78 34 0 38 3 69 63 41 78 93 119 252 198 67 33 157 88
201 121 l80 60 49 -30 49 -30 58 66 c32 36 63 70 69 76 5 6 53 58 104 116 69
77 100 104 115 102 75 -10 111 6 155 68 56 79 60 64 19 -66 -45 -142 -125
-224 -376 -390 -152 -99 -196 -135 -233 -189 -39 -57 -39 -83 0 -98 17 -6 30
-14 30 -18 0 -17 -296 -150 -363 -163 -7 -2 -31 -8 -54 -15 -94 -26 -274 -34
-388 -17 -125 19 -261 73 -368 145 -82 55 -98 71 -71 71 24 0 54 29 54 52 0
27 -71 100 -153 155 -116 78 -262 198 -352 289 -95 96 -142 177 -152 264 l-6
55 24 -20 c13 -11 32 -28 44 -38z"/>
</g>
</svg>
